<svg id="Capa_1" data-name="Capa 1" xmlns="http://www.w3.org/2000/svg" viewBox="0 0 1428.49 347.84">
  <defs>
    <style>
      .cls-1 {
        fill: #eaeaea;
      }

      .cls-2 {
        fill: #ccc;
      }

      .cls-3 {
        fill: #efefef;
      }
    </style>
  </defs>
  <title>logo-imcyc</title>
  <rect class="cls-1" x="425.03" y="100.79" width="60.12" height="173.21"/>
  <g>
    <path class="cls-1" d="M535.78,110.05h54.69V142h0.64c12-25,36.06-35.92,63.37-35.92,24.7,0,45.06,10.65,54.37,33.25C722.88,116,745.92,106,770.56,106c50,0,61.4,28.26,61.4,75.17v102H771.9V190.15c0-19.58-7-34.2-24-34.2-21.38,0-34,16.92-34,54.18v73.14h-60V190.15c0-19.58-7-34.2-24.06-34.2-21.31,0-34,16.92-34,54.18v73.14h-60V110.05Z" transform="translate(-15.91 -9.26)"/>
    <path class="cls-1" d="M1005.39,159.59c-11-6.65-22-9.64-36.37-9.64-26,0-46,17.93-46,47.86,0,27.63,23.36,45.56,49.33,45.56,13.67,0,27.39-3,37.39-8.29l1.28,44.54a162.76,162.76,0,0,1-48.94,7.59C904.69,287.22,861,254,861,196.79c0-57.5,43.71-90.75,101.09-90.75,18,0,33.93,3,47.65,9.69Z" transform="translate(-15.91 -9.26)"/>
    <path class="cls-1" d="M1369.08,159.59c-11-6.65-22-9.64-36.37-9.64-26,0-46,17.93-46,47.86,0,27.63,23.34,45.56,49.4,45.56,13.65,0,27.3-3,37.34-8.29l1.33,44.54a163.19,163.19,0,0,1-49.07,7.59c-57.38,0-101-33.18-101-90.43,0-57.5,43.64-90.75,101-90.75,18,0,34.07,3,47.74,9.69Z" transform="translate(-15.91 -9.26)"/>
    <path class="cls-1" d="M1038.58,307.57a73.4,73.4,0,0,0,23.67,3.63c14.76,0,26-8.67,30.38-24l-70.38-177.16H1087l37.39,113H1125l35.67-113h60.06L1157,271.26c-17,43.59-30,85.84-85.06,85.84a174.74,174.74,0,0,1-37.34-4Z" transform="translate(-15.91 -9.26)"/>
    <path class="cls-1" d="M136,139.85a65.46,65.46,0,0,1,102.86,0L331,86.78a171.64,171.64,0,0,0-287.07,0Z" transform="translate(-15.91 -9.26)"/>
    <path class="cls-1" d="M178,244.72a65.06,65.06,0,0,1-51.37-88.63L34.49,103.15a169.8,169.8,0,0,0-18.58,77.08c0,91.22,71.77,165.52,162.05,170.43V244.72Z" transform="translate(-15.91 -9.26)"/>
    <path class="cls-1" d="M340.32,103.15l-92,52.94a65.06,65.06,0,0,1-51.44,88.63V350.66c90.29-4.86,162.06-79.21,162.06-170.44a169,169,0,0,0-18.58-77.08" transform="translate(-15.91 -9.26)"/>
    <path class="cls-2" d="M1407.48,121.72a21.55,21.55,0,1,0,15.28-6.35,20.83,20.83,0,0,0-15.28,6.35m2.78,28.37a19.64,19.64,0,0,1,0-26.18,17.37,17.37,0,0,1,25,0,19.71,19.71,0,0,1,0,26.22,17.43,17.43,0,0,1-25,0m4.23-.45h4.13v-11.2h3.47l7.05,11.21,4.41,0-7.19-11.2a6.14,6.14,0,0,0,4.76-1.95,7.25,7.25,0,0,0,1.77-5.07q0-7.13-8.69-7.13h-9.71v25.35Zm4.13-22.11h4.92a7.28,7.28,0,0,1,3.75.87,3.06,3.06,0,0,1,1.47,2.85c0,1.56-.44,2.6-1.29,3.15a7.54,7.54,0,0,1-3.92.81h-4.92v-7.67Z" transform="translate(-15.91 -9.26)"/>
  </g>
  <g>
    <path class="cls-3" d="M451.85,353.46a12.94,12.94,0,0,1-4.42-.69,8.59,8.59,0,0,1-3.1-1.84A8.73,8.73,0,0,1,442.4,348a14.73,14.73,0,0,1-1-3.64,29.07,29.07,0,0,1-.28-4.25V323.26a29.4,29.4,0,0,1,.29-4.39,14.2,14.2,0,0,1,1.05-3.64,8.59,8.59,0,0,1,2-2.83,8.4,8.4,0,0,1,3.09-1.77,13.56,13.56,0,0,1,4.37-.64,12.24,12.24,0,0,1,4.76.83,7.16,7.16,0,0,1,3.13,2.45,10.64,10.64,0,0,1,1.67,3.76,21.86,21.86,0,0,1,.51,5v2.61h-3.79v-2.49a25.61,25.61,0,0,0-.23-3.76,9,9,0,0,0-.88-2.78,4.08,4.08,0,0,0-1.92-1.87,7.5,7.5,0,0,0-3.21-.6,7.93,7.93,0,0,0-3.47.67,4.43,4.43,0,0,0-2.06,2,9.91,9.91,0,0,0-.95,3,25.42,25.42,0,0,0-.26,3.93v18q0,4.94,1.47,7.2t5.26,2.25a7.27,7.27,0,0,0,2.69-.45,4.79,4.79,0,0,0,1.81-1.19,5.3,5.3,0,0,0,1.08-2,12.42,12.42,0,0,0,.54-2.51,29.06,29.06,0,0,0,.14-3.09v-2.77h3.79v2.48a28.16,28.16,0,0,1-.28,4.19,14.21,14.21,0,0,1-1,3.5,8.13,8.13,0,0,1-1.83,2.71,7.87,7.87,0,0,1-2.88,1.69A12.34,12.34,0,0,1,451.85,353.46Z" transform="translate(-15.91 -9.26)"/>
    <path class="cls-3" d="M478.16,353.46a13.17,13.17,0,0,1-5.24-.94,7.59,7.59,0,0,1-3.38-2.74,12.28,12.28,0,0,1-1.75-4.1,23.43,23.43,0,0,1-.54-5.31V322.75a22.26,22.26,0,0,1,.55-5.25,11.36,11.36,0,0,1,1.79-4,7.74,7.74,0,0,1,3.39-2.63,15.38,15.38,0,0,1,10.35,0,7.7,7.7,0,0,1,3.39,2.64,11.51,11.51,0,0,1,1.79,4,22.15,22.15,0,0,1,.55,5.22v17.67a26.33,26.33,0,0,1-.32,4.3,13.72,13.72,0,0,1-1.1,3.59,8.1,8.1,0,0,1-5.14,4.52A13.86,13.86,0,0,1,478.16,353.46Zm-3.43-3.86a9.69,9.69,0,0,0,6.86,0,4.55,4.55,0,0,0,2.11-1.88,8.8,8.8,0,0,0,1-2.79,19.92,19.92,0,0,0,.29-3.69V322a19.7,19.7,0,0,0-.29-3.68,8.5,8.5,0,0,0-1-2.75,4.44,4.44,0,0,0-2.11-1.83,10.09,10.09,0,0,0-6.86,0,4.44,4.44,0,0,0-2.11,1.83,8.5,8.5,0,0,0-1,2.75,19.7,19.7,0,0,0-.29,3.68v19.21a19.92,19.92,0,0,0,.29,3.69,8.8,8.8,0,0,0,1,2.79A4.55,4.55,0,0,0,474.73,349.61Z" transform="translate(-15.91 -9.26)"/>
    <path class="cls-3" d="M495.24,352.93l1.1-42.47h3.92l8.45,36.86,8.5-36.86h4l1.05,42.47H519l-0.82-33.86L510,352.93h-2.56l-8-33.79-0.82,33.79h-3.38Z" transform="translate(-15.91 -9.26)"/>
    <path class="cls-3" d="M529.31,352.93V310.46h10.19a13,13,0,0,1,4.79.79,7.16,7.16,0,0,1,3.15,2.32,9.81,9.81,0,0,1,1.67,3.52,18.66,18.66,0,0,1,.51,4.61,15.92,15.92,0,0,1-.55,4.32,10.52,10.52,0,0,1-1.72,3.51,7.73,7.73,0,0,1-3.15,2.42,11.5,11.5,0,0,1-4.65.87h-6.22v20.11h-4Zm4-23.08h5.1q3.92,0,5.6-1.81t1.68-6.31q0-4.89-1.49-6.6t-5.74-1.7h-5.15v16.42Z" transform="translate(-15.91 -9.26)"/>
    <path class="cls-3" d="M552.42,352.93l9-42.47h4.2l9,42.47h-3.92l-2.1-11.35H558.43l-2.15,11.35h-3.87ZM559,338.66h9l-4.53-22.9Z" transform="translate(-15.91 -9.26)"/>
    <path class="cls-3" d="M579.69,352.93V310.46h9.66q5.66,0,8.09,2.73t2.43,8q0,8.79-5.92,10l6.58,21.72H596.6L590.38,332h-6.66v20.88h-4Zm4-23.82h5.4q3.84,0,5.35-1.88t1.51-6q0-4.1-1.43-5.92t-5.3-1.82h-5.53V329.1Z" transform="translate(-15.91 -9.26)"/>
    <path class="cls-3" d="M611.15,352.93V313.53h-8.53v-3.07h20.88v3.07h-8.32v39.39h-4Z" transform="translate(-15.91 -9.26)"/>
    <path class="cls-3" d="M627.11,352.93V310.46h3.94v42.47h-3.94Z" transform="translate(-15.91 -9.26)"/>
    <path class="cls-3" d="M638.56,352.93V310.46h9.66q5.66,0,8.09,2.73t2.43,8q0,8.79-5.92,10l6.58,21.72h-3.94L649.24,332h-6.66v20.88h-4Zm4-23.82H648q3.84,0,5.35-1.88t1.51-6q0-4.1-1.43-5.92t-5.3-1.82h-5.53V329.1Z" transform="translate(-15.91 -9.26)"/>
    <path class="cls-3" d="M676.13,352.93V310.46h15.34v3.07H680.15v15.91h9.27v3h-9.27v17.52H691.6v3H676.13Z" transform="translate(-15.91 -9.26)"/>
    <path class="cls-3" d="M697,352.93V310.46h4v39.47h12.09v3H697Z" transform="translate(-15.91 -9.26)"/>
    <path class="cls-3" d="M737.71,353.46a12.94,12.94,0,0,1-4.42-.69,8.59,8.59,0,0,1-3.1-1.84,8.72,8.72,0,0,1-1.93-2.89,14.75,14.75,0,0,1-1-3.64,29,29,0,0,1-.28-4.25V323.26a29.4,29.4,0,0,1,.29-4.39,14.2,14.2,0,0,1,1-3.64,8.6,8.6,0,0,1,2-2.83,8.4,8.4,0,0,1,3.09-1.77,13.56,13.56,0,0,1,4.37-.64,12.24,12.24,0,0,1,4.76.83,7.16,7.16,0,0,1,3.13,2.45,10.64,10.64,0,0,1,1.67,3.76,21.83,21.83,0,0,1,.51,5v2.61H744v-2.49a25.68,25.68,0,0,0-.23-3.76,9,9,0,0,0-.88-2.78,4.08,4.08,0,0,0-1.92-1.87,7.5,7.5,0,0,0-3.21-.6,7.93,7.93,0,0,0-3.47.67,4.43,4.43,0,0,0-2.06,2,9.91,9.91,0,0,0-.95,3,25.43,25.43,0,0,0-.26,3.93v18q0,4.94,1.47,7.2t5.26,2.25a7.27,7.27,0,0,0,2.69-.45,4.8,4.8,0,0,0,1.81-1.19,5.31,5.31,0,0,0,1.08-2,12.45,12.45,0,0,0,.54-2.51A29,29,0,0,0,744,341v-2.77h3.79v2.48a28.16,28.16,0,0,1-.28,4.19,14.24,14.24,0,0,1-1,3.5,8.13,8.13,0,0,1-1.83,2.71,7.86,7.86,0,0,1-2.88,1.69A12.34,12.34,0,0,1,737.71,353.46Z" transform="translate(-15.91 -9.26)"/>
    <path class="cls-3" d="M764,353.46a13.17,13.17,0,0,1-5.24-.94,7.58,7.58,0,0,1-3.38-2.74,12.27,12.27,0,0,1-1.75-4.1,23.43,23.43,0,0,1-.54-5.31V322.75a22.28,22.28,0,0,1,.55-5.25,11.38,11.38,0,0,1,1.79-4,7.74,7.74,0,0,1,3.39-2.63,15.38,15.38,0,0,1,10.35,0,7.69,7.69,0,0,1,3.39,2.64,11.53,11.53,0,0,1,1.79,4,22.2,22.2,0,0,1,.55,5.22v17.67a26.39,26.39,0,0,1-.32,4.3,13.74,13.74,0,0,1-1.1,3.59,8.1,8.1,0,0,1-5.14,4.52A13.85,13.85,0,0,1,764,353.46Zm-3.43-3.86a9.7,9.7,0,0,0,6.87,0,4.55,4.55,0,0,0,2.11-1.88,8.81,8.81,0,0,0,1-2.79,20,20,0,0,0,.29-3.69V322a19.79,19.79,0,0,0-.29-3.68,8.51,8.51,0,0,0-1-2.75,4.44,4.44,0,0,0-2.11-1.83,10.09,10.09,0,0,0-6.87,0,4.45,4.45,0,0,0-2.11,1.83,8.51,8.51,0,0,0-1,2.75,19.71,19.71,0,0,0-.29,3.68v19.21a19.93,19.93,0,0,0,.29,3.69,8.81,8.81,0,0,0,1,2.79A4.55,4.55,0,0,0,760.58,349.61Z" transform="translate(-15.91 -9.26)"/>
    <path class="cls-3" d="M781.46,352.93V310.46h2.95l13.52,33v-33h3.43v42.47h-2.82l-13.63-33.35v33.35h-3.46Z" transform="translate(-15.91 -9.26)"/>
    <path class="cls-3" d="M818.8,353.46a13.17,13.17,0,0,1-5.24-.94,7.58,7.58,0,0,1-3.38-2.74,12.27,12.27,0,0,1-1.75-4.1,23.43,23.43,0,0,1-.54-5.31V322.75a22.28,22.28,0,0,1,.55-5.25,11.38,11.38,0,0,1,1.79-4,7.74,7.74,0,0,1,3.39-2.63,15.38,15.38,0,0,1,10.35,0,7.69,7.69,0,0,1,3.39,2.64,11.53,11.53,0,0,1,1.79,4,22.2,22.2,0,0,1,.55,5.22v17.67a26.39,26.39,0,0,1-.32,4.3,13.74,13.74,0,0,1-1.1,3.59,8.1,8.1,0,0,1-5.14,4.52A13.85,13.85,0,0,1,818.8,353.46Zm-3.43-3.86a9.7,9.7,0,0,0,6.87,0,4.55,4.55,0,0,0,2.11-1.88,8.81,8.81,0,0,0,1-2.79,20,20,0,0,0,.29-3.69V322a19.79,19.79,0,0,0-.29-3.68,8.51,8.51,0,0,0-1-2.75,4.44,4.44,0,0,0-2.11-1.83,10.09,10.09,0,0,0-6.87,0,4.45,4.45,0,0,0-2.11,1.83,8.51,8.51,0,0,0-1,2.75,19.71,19.71,0,0,0-.29,3.68v19.21a19.93,19.93,0,0,0,.29,3.69,8.81,8.81,0,0,0,1,2.79A4.55,4.55,0,0,0,815.37,349.61Z" transform="translate(-15.91 -9.26)"/>
    <path class="cls-3" d="M846.16,353.46a12.94,12.94,0,0,1-4.42-.69,8.59,8.59,0,0,1-3.1-1.84,8.72,8.72,0,0,1-1.93-2.89,14.75,14.75,0,0,1-1-3.64,29,29,0,0,1-.28-4.25V323.26a29.4,29.4,0,0,1,.29-4.39,14.2,14.2,0,0,1,1-3.64,8.6,8.6,0,0,1,2-2.83,8.4,8.4,0,0,1,3.09-1.77,13.56,13.56,0,0,1,4.37-.64,12.24,12.24,0,0,1,4.76.83,7.16,7.16,0,0,1,3.13,2.45,10.64,10.64,0,0,1,1.67,3.76,21.83,21.83,0,0,1,.51,5v2.61h-3.79v-2.49a25.68,25.68,0,0,0-.23-3.76,9,9,0,0,0-.88-2.78,4.08,4.08,0,0,0-1.92-1.87,7.5,7.5,0,0,0-3.21-.6,7.93,7.93,0,0,0-3.47.67,4.43,4.43,0,0,0-2.06,2,9.91,9.91,0,0,0-.95,3,25.43,25.43,0,0,0-.26,3.93v18q0,4.94,1.47,7.2t5.26,2.25a7.27,7.27,0,0,0,2.69-.45,4.8,4.8,0,0,0,1.81-1.19,5.31,5.31,0,0,0,1.08-2,12.45,12.45,0,0,0,.54-2.51,29,29,0,0,0,.14-3.09v-2.77h3.79v2.48a28.16,28.16,0,0,1-.28,4.19,14.24,14.24,0,0,1-1,3.5,8.13,8.13,0,0,1-1.83,2.71,7.86,7.86,0,0,1-2.88,1.69A12.34,12.34,0,0,1,846.16,353.46Z" transform="translate(-15.91 -9.26)"/>
    <path class="cls-3" d="M862.58,352.93V310.46h3.94v42.47h-3.94Z" transform="translate(-15.91 -9.26)"/>
    <path class="cls-3" d="M873.67,352.93l1.1-42.47h3.92l8.45,36.86,8.5-36.86h4l1,42.47h-3.33l-0.82-33.86-8.12,33.86h-2.56l-8-33.79L877,352.93h-3.38Z" transform="translate(-15.91 -9.26)"/>
    <path class="cls-3" d="M907.91,352.93V310.46h3.94v42.47h-3.94Z" transform="translate(-15.91 -9.26)"/>
    <path class="cls-3" d="M919.36,352.93V310.46h15.34v3.07H923.38v15.91h9.27v3h-9.27v17.52h11.45v3H919.36Z" transform="translate(-15.91 -9.26)"/>
    <path class="cls-3" d="M940.26,352.93V310.46h2.95l13.52,33v-33h3.43v42.47h-2.82l-13.63-33.35v33.35h-3.46Z" transform="translate(-15.91 -9.26)"/>
    <path class="cls-3" d="M972.13,352.93V313.53H963.6v-3.07h20.88v3.07h-8.32v39.39h-4Z" transform="translate(-15.91 -9.26)"/>
    <path class="cls-3" d="M998,353.46a13.17,13.17,0,0,1-5.24-.94,7.58,7.58,0,0,1-3.38-2.74,12.27,12.27,0,0,1-1.75-4.1,23.43,23.43,0,0,1-.54-5.31V322.75a22.28,22.28,0,0,1,.55-5.25,11.38,11.38,0,0,1,1.79-4,7.74,7.74,0,0,1,3.39-2.63,15.38,15.38,0,0,1,10.35,0,7.69,7.69,0,0,1,3.39,2.64,11.53,11.53,0,0,1,1.79,4,22.2,22.2,0,0,1,.55,5.22v17.67a26.39,26.39,0,0,1-.32,4.3,13.74,13.74,0,0,1-1.1,3.59,8.1,8.1,0,0,1-5.14,4.52A13.85,13.85,0,0,1,998,353.46Zm-3.43-3.86a9.7,9.7,0,0,0,6.87,0,4.55,4.55,0,0,0,2.11-1.88,8.81,8.81,0,0,0,1-2.79,20,20,0,0,0,.29-3.69V322a19.79,19.79,0,0,0-.29-3.68,8.51,8.51,0,0,0-1-2.75,4.44,4.44,0,0,0-2.11-1.83,10.09,10.09,0,0,0-6.87,0,4.45,4.45,0,0,0-2.11,1.83,8.51,8.51,0,0,0-1,2.75,19.71,19.71,0,0,0-.29,3.68v19.21a19.93,19.93,0,0,0,.29,3.69,8.81,8.81,0,0,0,1,2.79A4.55,4.55,0,0,0,994.54,349.61Z" transform="translate(-15.91 -9.26)"/>
  </g>
</svg>
